<?xml version="1.0" encoding="utf-8"?>
<!-- Generator: Adobe Illustrator 26.0.1, SVG Export Plug-In . SVG Version: 6.00 Build 0)  -->
<svg version="1.1" id="Layer_1" xmlns="http://www.w3.org/2000/svg" xmlns:xlink="http://www.w3.org/1999/xlink" x="0px" y="0px"
	 viewBox="0 0 554.24 554.24" style="enable-background:new 0 0 554.24 554.24;" xml:space="preserve">
<style type="text/css">
	.st0{display:none;fill:#090E0A;}
	.st1{display:none;}
	.st2{display:inline;fill:#FFFFFF;}
	.st3{font-family:'Runaways-Regular';}
	.st4{font-size:45px;}
	.st5{display:none;fill:url(#SVGID_1_);}
	.st6{fill:url(#SVGID_00000128470065113375464210000002659397593545800336_);}
	.st7{fill:url(#SVGID_00000073714347344365088120000017383865133786874507_);}
	.st8{fill:url(#SVGID_00000035522314295806526160000015334110842053176226_);}
	.st9{fill:url(#SVGID_00000076582987752312243150000015425683583826708107_);}
	.st10{fill:url(#SVGID_00000168815865892856650810000016241419140551892109_);}
	.st11{fill:url(#SVGID_00000163039317500482578450000007744988985972914106_);}
	.st12{fill:url(#SVGID_00000044885935684608643190000010846705476095799472_);}
	.st13{fill:url(#SVGID_00000084497843236168292560000004775149739540429226_);}
	.st14{display:none;fill:url(#SVGID_00000124853233740677092770000011142659053714151600_);}
	.st15{fill:url(#SVGID_00000057863354487824205710000000120730375567114625_);}
	.st16{fill:url(#SVGID_00000110450954908544887150000004362438352948650640_);}
	.st17{fill:url(#SVGID_00000030448364331437949990000005965912739620885904_);}
	.st18{fill:url(#SVGID_00000162347984260879628710000012588331464414823610_);}
	.st19{fill:url(#SVGID_00000084523988821144420410000007295958105633659795_);}
	.st20{fill:url(#SVGID_00000033343781175011368140000014838219503725544584_);}
	.st21{fill:url(#SVGID_00000134208513092895742170000011105925392590521728_);}
	.st22{fill:url(#SVGID_00000166664799928374648260000010721498651421740441_);}
	.st23{fill:#090E0A;}
	.st24{font-family:'AligarhArabicFREEPERSONALUSE-Medium';}
	.st25{font-size:49.7312px;}
	.st26{font-family:'Poppins-Regular';}
	.st27{font-size:39px;}
	.st28{letter-spacing:2;}
	.st29{fill:#FFFFFF;}
	.st30{fill:url(#SVGID_00000113339461966870012300000004024164767516606083_);}
	.st31{fill:url(#SVGID_00000053510782540829893820000006757417340734208928_);}
	.st32{fill:url(#SVGID_00000096052057653538974790000016661699022971584930_);}
	.st33{fill:url(#SVGID_00000114060779425570299870000009256301561353891757_);}
	.st34{fill:url(#SVGID_00000176753243851690833510000003986100586355936436_);}
	.st35{fill:url(#SVGID_00000096749672025383253130000018141904607383660680_);}
	.st36{fill:url(#SVGID_00000034768512968438251920000004418911880224298131_);}
	.st37{fill:url(#SVGID_00000117669524970189606710000001625737430244941220_);}
	.st38{fill:url(#SVGID_00000098199943546445923600000001138636408880986558_);}
	.st39{fill:url(#SVGID_00000158727655345100244710000016848662638773597861_);}
	.st40{fill:url(#SVGID_00000098931929064147480920000005668650626144223140_);}
	.st41{fill:url(#SVGID_00000109010149008784768250000000346003037384279959_);}
	.st42{fill:url(#SVGID_00000060031018608186574070000000835898634607076776_);}
	.st43{fill:url(#SVGID_00000112591390396980823250000017916022187103220143_);}
	.st44{fill:url(#SVGID_00000178892132695750084780000009187211049973237181_);}
	.st45{fill:url(#SVGID_00000026148100105889836810000008986836621481810876_);}
	.st46{fill:url(#SVGID_00000117637815602225820410000006713439734022587280_);}
	.st47{fill:url(#SVGID_00000083062296397474045100000017810140009646743682_);}
	.st48{fill:url(#SVGID_00000126299790872059790570000017854671725923408060_);}
	.st49{fill:url(#SVGID_00000031895826808167936820000010330757425907387575_);}
	.st50{fill:url(#SVGID_00000166645237618740984750000003013216870846406025_);}
	.st51{fill:url(#SVGID_00000024700381072296410140000015039907979809790110_);}
	.st52{fill:url(#SVGID_00000065795924292653352570000013749327461719853485_);}
	.st53{fill:url(#SVGID_00000152255247708503511290000018383406594324567470_);}
	.st54{fill:url(#SVGID_00000103954364765978799380000017832360826791092151_);}
	.st55{fill:url(#SVGID_00000163063553374937609910000017305098891504588183_);}
	.st56{fill:url(#SVGID_00000068675426669116741630000017386148442759306661_);}
	.st57{fill:url(#SVGID_00000176030214578542069320000002545496895002390413_);}
	.st58{fill:url(#SVGID_00000107558137365073649320000013461975142173105049_);}
	.st59{fill:url(#SVGID_00000082343514756789763810000003284711835382237839_);}
	.st60{fill:url(#SVGID_00000088831948921065235670000001525784051412603058_);}
	.st61{fill:url(#SVGID_00000015339677805761126500000017476401093362570123_);}
	.st62{fill:url(#SVGID_00000133527820040519489640000018189688651787045047_);}
	.st63{fill:url(#SVGID_00000071558609541327136110000003993410125258437776_);}
	.st64{fill:url(#SVGID_00000041261503046255336840000014560495416056917896_);}
	.st65{fill:url(#SVGID_00000055708932505339529970000004984163411277951129_);}
	.st66{fill:url(#SVGID_00000106862646326395902560000001907447456776343222_);}
	.st67{fill:url(#SVGID_00000149369985679921620640000018179889519674366866_);}
	.st68{fill:url(#SVGID_00000079445846487543300960000010845264499978381443_);}
	.st69{fill:url(#SVGID_00000071542772970045326970000001896004478333156247_);}
	.st70{fill:url(#SVGID_00000077293949748714023530000018021590218098711687_);}
	.st71{fill:url(#SVGID_00000010284450038942857710000007319332136960926361_);}
	.st72{fill:url(#SVGID_00000151514847035135277610000001348011472100022714_);}
	.st73{fill:url(#SVGID_00000008117639459620735630000017653968419859046286_);}
	.st74{fill:url(#SVGID_00000059286309642036587760000012683351330299383471_);}
	.st75{fill:url(#SVGID_00000178896012469623390730000001288493634692006572_);}
	.st76{fill:url(#SVGID_00000158744017462818447530000014372604261162213782_);}
	.st77{fill:url(#SVGID_00000013177921111315290900000012988914557039841946_);}
	.st78{fill:url(#SVGID_00000075879865453962392690000018325614922679318666_);}
	.st79{fill:url(#SVGID_00000091001754808881797450000017801052817693604757_);}
	.st80{fill:url(#SVGID_00000116196462145806235900000008731265462074814858_);}
	.st81{fill:url(#SVGID_00000026873254497935164960000001336639742604892301_);}
	.st82{fill:url(#SVGID_00000183955390089160252850000009745446703677728187_);}
	.st83{fill:url(#SVGID_00000117667672442335011670000012324633115195838348_);}
	.st84{fill:url(#SVGID_00000150081748417084726140000018396482643686823871_);}
	.st85{fill:url(#SVGID_00000092417448355769522870000015229892899628910497_);}
	.st86{fill:url(#SVGID_00000159460764509130981310000010818774006157652102_);}
	.st87{fill:url(#SVGID_00000018237585217474856430000006754118934532915128_);}
	.st88{fill:url(#SVGID_00000120544910214558139640000004561044132533505470_);}
	.st89{fill:url(#SVGID_00000072963681981502070890000010530283577917664410_);}
	.st90{fill:url(#SVGID_00000134930742360470809350000013759431072087693970_);}
	.st91{fill:url(#SVGID_00000004544124964477644880000000146302259590509225_);}
	.st92{fill:url(#SVGID_00000151519866895849301920000013967332686010173599_);}
	.st93{fill:url(#SVGID_00000018942122957208906900000009858474141755384974_);}
	.st94{fill:url(#SVGID_00000158737362000361631050000010919451536921494957_);}
	.st95{fill:url(#SVGID_00000103225440932117511190000017268265315596835736_);}
	.st96{fill:url(#SVGID_00000126318728378694038960000001612469752514301832_);}
	.st97{fill:url(#SVGID_00000072250986810782459930000008297951321473240725_);}
	.st98{fill:url(#SVGID_00000044872860393427385260000002077304116133233288_);}
	.st99{fill:url(#SVGID_00000019648187018221295720000007407009298525483172_);}
	.st100{fill:url(#SVGID_00000134230604490568051810000005653614426708610747_);}
	.st101{fill:url(#SVGID_00000150097450456913499630000017225693139444184489_);}
	.st102{fill:url(#SVGID_00000117639635668202414120000004078529098613291958_);}
	.st103{fill:url(#SVGID_00000110452954895672302860000011316476690439609021_);}
	.st104{fill:url(#SVGID_00000083808839213464667130000015741389021446940825_);}
	.st105{fill:url(#SVGID_00000063624996984050038520000004643268247770120348_);}
	.st106{fill:url(#SVGID_00000078044848221431903790000016761606063899911087_);}
	.st107{fill:url(#SVGID_00000126311193175156982920000000859814669050297008_);}
	.st108{fill:url(#SVGID_00000147201162584761037240000010025647840924326821_);}
	.st109{fill:url(#SVGID_00000102526558312816074310000009070192997408356787_);}
	.st110{fill:url(#SVGID_00000177452289400019776470000013072909769232980143_);}
	.st111{fill:url(#SVGID_00000119112777092910257000000007114073648339047064_);}
	.st112{fill:url(#SVGID_00000066477766303902757310000000825702270404607887_);}
	.st113{fill:url(#SVGID_00000116236669089178981900000011796846530728572288_);}
	.st114{fill:url(#SVGID_00000011016163850938854420000009450027879146020286_);}
	.st115{fill:url(#SVGID_00000026155810491784714280000010098196403638980020_);}
	.st116{fill:url(#SVGID_00000041983114985261744900000003188093289901241265_);}
	.st117{fill:url(#SVGID_00000009590525822337066170000011011044411330890379_);}
	.st118{fill:url(#SVGID_00000169547898042885978430000002210350733778235537_);}
	.st119{fill:url(#SVGID_00000036231815870975455210000009242844223444611481_);}
	.st120{fill:url(#SVGID_00000109030135532447611650000001466240566419588755_);}
	.st121{fill:url(#SVGID_00000145035819761901138650000017815699199370493111_);}
	.st122{fill:url(#SVGID_00000124148495656325673280000004211854867235415975_);}
	.st123{fill:url(#SVGID_00000128466937360184072460000010868319117658247092_);}
	.st124{fill:url(#SVGID_00000010310847365107848540000004857212402995030922_);}
	.st125{fill:url(#SVGID_00000032640651982163215240000010339639646956731525_);}
	.st126{fill:url(#SVGID_00000039833689874030570450000003172515980898503052_);}
	.st127{fill:url(#SVGID_00000000916195324198928520000013467095767836031626_);}
	.st128{fill:url(#SVGID_00000030455283003799929160000009014108250809623481_);}
	.st129{fill:url(#SVGID_00000040549300048196588440000015836678845238965889_);}
	.st130{fill:url(#SVGID_00000110463214746003150360000010725320717844765372_);}
	.st131{fill:url(#SVGID_00000035509859819988056930000015700832562373940361_);}
	.st132{fill:url(#SVGID_00000124161988946836574870000014225190159671564712_);}
	.st133{fill:url(#SVGID_00000081615296479986134030000008581446711120694673_);}
	.st134{fill:url(#SVGID_00000053541385275885537540000018371370659573435523_);}
	.st135{fill:url(#SVGID_00000175284042514924187860000009038018204868117393_);}
	.st136{fill:url(#SVGID_00000025415699596207940430000007486881170162232228_);}
	.st137{fill:url(#SVGID_00000101083097382313495080000002547233662077926304_);}
	.st138{fill:url(#SVGID_00000147185287902081668750000017372230503128017560_);}
	.st139{fill:url(#SVGID_00000182528753632309108530000002949777360269700027_);}
	.st140{fill:url(#SVGID_00000098205874600079316340000007454301560380872623_);}
	.st141{fill:url(#SVGID_00000121982253925324992750000006220885279060677258_);}
	.st142{fill:url(#SVGID_00000038379814159549415350000007678815036182066831_);}
	.st143{fill:url(#SVGID_00000057826594852467495440000003600606749849832612_);}
	.st144{fill:url(#SVGID_00000075872153935007519210000000976180114225538965_);}
	.st145{fill:url(#SVGID_00000084494484452004762000000015719135829244143280_);}
	.st146{fill:url(#SVGID_00000043433381347784267230000012894801786689444017_);}
	.st147{fill:url(#SVGID_00000162337115755015783670000003975556457987464087_);}
	.st148{fill:url(#SVGID_00000129897889304272696250000013755479582813122945_);}
	.st149{fill:url(#SVGID_00000121992486872105266770000002466998246692283315_);}
	.st150{fill:url(#SVGID_00000068652922284867331840000007016060517498850237_);}
	.st151{fill:url(#SVGID_00000047743991978493208420000014556459743258028936_);}
	.st152{fill:url(#SVGID_00000059298160941703248470000018243030488047799937_);}
	.st153{fill:url(#SVGID_00000079460022615241153740000002519944475363890856_);}
	.st154{fill:url(#SVGID_00000002377613719311577280000008691586005472527032_);}
	.st155{fill:url(#SVGID_00000135682833561054889360000003955109033392319420_);}
	.st156{fill:url(#SVGID_00000103224890431680347140000012751116352799087518_);}
	.st157{fill:url(#SVGID_00000172410253791765454290000000912790458719106484_);}
	.st158{fill:url(#SVGID_00000049938710854191983440000017881699080562593691_);}
	.st159{fill:url(#SVGID_00000139269724724562771530000009448753689622658185_);}
	.st160{fill:url(#SVGID_00000057828996746223687720000005876927672728898957_);}
	.st161{fill:url(#SVGID_00000047061922122868699940000016831087978031445899_);}
	.st162{fill:url(#SVGID_00000176738305276680227100000002361894564252240005_);}
	.st163{fill:url(#SVGID_00000000215636596200674890000000862437132600689541_);}
	.st164{fill:url(#SVGID_00000138550503238436936830000013856836456010158256_);}
	.st165{fill:url(#SVGID_00000066507547299038508410000009404285069239092879_);}
	.st166{fill:url(#SVGID_00000131366745531248081490000011216598537488864189_);}
	.st167{fill:url(#SVGID_00000054242483013774896130000011457362411604876190_);}
	.st168{fill:url(#SVGID_00000028303204368040239520000003356866528897863835_);}
	.st169{fill:url(#SVGID_00000168816609683587736300000004458453594218899881_);}
	.st170{fill:url(#SVGID_00000100342943659517513440000011941530206944428465_);}
	.st171{fill:url(#SVGID_00000145757986054340137240000016412222258662505875_);}
	.st172{fill:url(#SVGID_00000045588918650497673390000018089258942875173506_);}
	.st173{fill:url(#SVGID_00000097466766751229610280000010977212543108404877_);}
	.st174{fill:url(#SVGID_00000051342224035705118510000016998937771018480312_);}
	.st175{fill:url(#SVGID_00000180362636645867889040000018199255109114155650_);}
	.st176{fill:url(#SVGID_00000139290627532844475920000010976669020748052629_);}
	.st177{fill:url(#SVGID_00000165210133272277139030000010110840714821632921_);}
</style>
<rect x="-222.88" y="-222.88" class="st0" width="1000" height="1000"/>
<g class="st1">
	<text transform="matrix(1 0 0 1 88.9709 543.9953)" class="st2 st3 st4">By Atif traders</text>
</g>
<g>
	<g>
		<linearGradient id="SVGID_1_" gradientUnits="userSpaceOnUse" x1="88.1659" y1="204.6871" x2="466.0761" y2="204.6871">
			<stop  offset="0" style="stop-color:#FAC242"/>
			<stop  offset="0.1" style="stop-color:#9F5425"/>
			<stop  offset="0.3" style="stop-color:#E8AA35"/>
			<stop  offset="0.48" style="stop-color:#F4F19B"/>
			<stop  offset="0.58" style="stop-color:#E8AA35"/>
			<stop  offset="0.88" style="stop-color:#612810"/>
			<stop  offset="1" style="stop-color:#E8AA35"/>
		</linearGradient>
		<path class="st5" d="M458.38,194.06c-5.37-6.62-11.56-12.49-18.4-17.46c-5.86-4.26-16.66-10.87-31.68-15.07
			c2.04-3.26,3.15-7.02,3.15-10.96c0-5.55-2.16-10.76-6.08-14.68c-3.92-3.92-9.13-6.08-14.68-6.08c-3.74,0-7.33,1.01-10.47,2.85
			c0.66-7,0.61-14.11-0.17-21.13l-1.35-12.15l-12.17-1.13c-3.02-0.28-6.09-0.42-9.11-0.42c-1.65,0-3.29,0.06-4.94,0.14
			c0.5-1.8,0.78-3.68,0.78-5.6c0-5.55-2.16-10.76-6.08-14.68c-3.92-3.92-9.13-6.08-14.68-6.08c-4.73,0-9.21,1.58-12.86,4.47
			c-4.72-16.79-12.59-29.17-18.78-36.95c-4.55-5.72-9.74-10.97-15.42-15.62l-9.46-7.73l-9.49,7.7c-6.61,5.37-12.49,11.56-17.46,18.4
			c-4.25,5.84-10.82,16.59-15.03,31.54c-3.17-1.88-6.78-2.91-10.56-2.91c-5.55,0-10.76,2.16-14.68,6.08s-6.08,9.13-6.08,14.68
			c0,3.36,0.8,6.59,2.3,9.49c-2.68-0.21-5.37-0.32-8.05-0.32c-3.8,0-7.65,0.21-11.44,0.64l-12.14,1.35l-1.13,12.17
			c-0.47,5.08-0.54,10.19-0.22,15.25c-2.15-0.74-4.42-1.14-6.75-1.14c-5.55,0-10.76,2.16-14.68,6.08s-6.08,9.13-6.08,14.68
			c0,4.55,1.48,8.87,4.17,12.44c-17.42,4.93-29.55,13.17-35.78,18.21c-6.57,5.32-12.45,11.51-17.47,18.39l-7.2,9.87l8.21,9.05
			c4.93,5.44,10.45,10.35,16.4,14.59c7.78,5.55,19.89,12.44,35.92,16.37c-3.77,7.74-2.46,17.35,3.96,23.78
			c3.92,3.92,9.13,6.08,14.68,6.08c2.54,0,5.01-0.47,7.32-1.34c-0.44,6.22-0.32,12.51,0.37,18.73l1.35,12.14l12.17,1.13
			c3.02,0.28,6.09,0.42,9.11,0.42c0,0,0,0,0,0c2.75,0,5.5-0.12,8.25-0.35c-0.73,2.13-1.13,4.39-1.13,6.71
			c0,5.55,2.16,10.76,6.08,14.68c3.92,3.92,9.13,6.08,14.68,6.08c3.22,0,6.33-0.75,9.14-2.13c4.96,16.77,12.94,28.5,17.87,34.59
			c5.32,6.58,11.51,12.45,18.39,17.47l9.87,7.2l9.05-8.21c5.44-4.94,10.34-10.45,14.59-16.4c5.53-7.74,12.37-19.76,16.32-35.68
			c3.09,1.76,6.59,2.71,10.24,2.71c5.55,0,10.76-2.16,14.68-6.08c3.92-3.92,6.08-9.13,6.08-14.68c0-3.13-0.71-6.14-2.01-8.88
			c2.79,0.23,5.61,0.35,8.4,0.35c3.8,0,7.65-0.21,11.44-0.64l12.14-1.35l1.13-12.17c0.49-5.23,0.55-10.47,0.2-15.67
			c1.96,0.6,4.02,0.92,6.13,0.92c5.54,0,10.76-2.16,14.68-6.08c3.92-3.92,6.08-9.13,6.08-14.68c0-3.66-0.96-7.18-2.73-10.27
			c16.05-4.75,27.95-12.35,35.5-18.35c5.72-4.55,10.98-9.74,15.62-15.42l7.73-9.46L458.38,194.06z"/>
		<g>
			<g>
				<g>
					
						<linearGradient id="SVGID_00000005259330242114844920000002644444683051768709_" gradientUnits="userSpaceOnUse" x1="-115.2088" y1="170.833" x2="-115.2088" y2="-160.0851" gradientTransform="matrix(-0.0259 0.9997 -0.9997 -0.0259 437.537 373.5563)">
						<stop  offset="0" style="stop-color:#FAC242"/>
						<stop  offset="0.1" style="stop-color:#9F5425"/>
						<stop  offset="0.3" style="stop-color:#E8AA35"/>
						<stop  offset="0.48" style="stop-color:#F4F19B"/>
						<stop  offset="0.58" style="stop-color:#E8AA35"/>
						<stop  offset="0.88" style="stop-color:#612810"/>
						<stop  offset="1" style="stop-color:#E8AA35"/>
					</linearGradient>
					<circle style="fill:url(#SVGID_00000005259330242114844920000002644444683051768709_);" cx="389.2" cy="257.06" r="5.76"/>
					
						<linearGradient id="SVGID_00000163035493044669594830000000472124942772770980_" gradientUnits="userSpaceOnUse" x1="-55.5204" y1="170.833" x2="-55.5204" y2="-160.0851" gradientTransform="matrix(-0.0259 0.9997 -0.9997 -0.0259 437.537 373.5563)">
						<stop  offset="0" style="stop-color:#FAC242"/>
						<stop  offset="0.1" style="stop-color:#9F5425"/>
						<stop  offset="0.3" style="stop-color:#E8AA35"/>
						<stop  offset="0.48" style="stop-color:#F4F19B"/>
						<stop  offset="0.58" style="stop-color:#E8AA35"/>
						<stop  offset="0.88" style="stop-color:#612810"/>
						<stop  offset="1" style="stop-color:#E8AA35"/>
					</linearGradient>
					<circle style="fill:url(#SVGID_00000163035493044669594830000000472124942772770980_);" cx="331" cy="315.26" r="5.76"/>
				</g>
				<g>
					
						<linearGradient id="SVGID_00000046334576877929091230000014805763138133744532_" gradientUnits="userSpaceOnUse" x1="-276.6394" y1="340.8551" x2="-276.6394" y2="9.9371" gradientTransform="matrix(-0.0259 0.9997 -0.9997 -0.0259 437.537 373.5563)">
						<stop  offset="0" style="stop-color:#FAC242"/>
						<stop  offset="0.1" style="stop-color:#9F5425"/>
						<stop  offset="0.3" style="stop-color:#E8AA35"/>
						<stop  offset="0.48" style="stop-color:#F4F19B"/>
						<stop  offset="0.58" style="stop-color:#E8AA35"/>
						<stop  offset="0.88" style="stop-color:#612810"/>
						<stop  offset="1" style="stop-color:#E8AA35"/>
					</linearGradient>
					<circle style="fill:url(#SVGID_00000046334576877929091230000014805763138133744532_);" cx="223.42" cy="91.27" r="5.76"/>
					
						<linearGradient id="SVGID_00000018226092907440459670000015186016172179524286_" gradientUnits="userSpaceOnUse" x1="-216.9509" y1="340.8551" x2="-216.9509" y2="9.9371" gradientTransform="matrix(-0.0259 0.9997 -0.9997 -0.0259 437.537 373.5563)">
						<stop  offset="0" style="stop-color:#FAC242"/>
						<stop  offset="0.1" style="stop-color:#9F5425"/>
						<stop  offset="0.3" style="stop-color:#E8AA35"/>
						<stop  offset="0.48" style="stop-color:#F4F19B"/>
						<stop  offset="0.58" style="stop-color:#E8AA35"/>
						<stop  offset="0.88" style="stop-color:#612810"/>
						<stop  offset="1" style="stop-color:#E8AA35"/>
					</linearGradient>
					<circle style="fill:url(#SVGID_00000018226092907440459670000015186016172179524286_);" cx="165.22" cy="149.47" r="5.76"/>
				</g>
			</g>
			<g>
				<g>
					
						<linearGradient id="SVGID_00000116926535775912225260000009664493543978671527_" gradientUnits="userSpaceOnUse" x1="206.7215" y1="142.6047" x2="206.7215" y2="-188.3133" gradientTransform="matrix(0.9997 0.0259 -0.0259 0.9997 126.4222 63.9036)">
						<stop  offset="0" style="stop-color:#FAC242"/>
						<stop  offset="0.1" style="stop-color:#9F5425"/>
						<stop  offset="0.3" style="stop-color:#E8AA35"/>
						<stop  offset="0.48" style="stop-color:#F4F19B"/>
						<stop  offset="0.58" style="stop-color:#E8AA35"/>
						<stop  offset="0.88" style="stop-color:#612810"/>
						<stop  offset="1" style="stop-color:#E8AA35"/>
					</linearGradient>
					<circle style="fill:url(#SVGID_00000116926535775912225260000009664493543978671527_);" cx="332.48" cy="92.37" r="5.76"/>
					
						<linearGradient id="SVGID_00000048469273332122319370000006452653946691296915_" gradientUnits="userSpaceOnUse" x1="266.41" y1="142.6047" x2="266.41" y2="-188.3133" gradientTransform="matrix(0.9997 0.0259 -0.0259 0.9997 126.4222 63.9036)">
						<stop  offset="0" style="stop-color:#FAC242"/>
						<stop  offset="0.1" style="stop-color:#9F5425"/>
						<stop  offset="0.3" style="stop-color:#E8AA35"/>
						<stop  offset="0.48" style="stop-color:#F4F19B"/>
						<stop  offset="0.58" style="stop-color:#E8AA35"/>
						<stop  offset="0.88" style="stop-color:#612810"/>
						<stop  offset="1" style="stop-color:#E8AA35"/>
					</linearGradient>
					<circle style="fill:url(#SVGID_00000048469273332122319370000006452653946691296915_);" cx="390.68" cy="150.57" r="5.76"/>
				</g>
				<g>
					
						<linearGradient id="SVGID_00000030461605429871136710000001921137036286069641_" gradientUnits="userSpaceOnUse" x1="45.9167" y1="311.9678" x2="45.9167" y2="-18.9502" gradientTransform="matrix(0.9997 0.0259 -0.0259 0.9997 126.4222 63.9036)">
						<stop  offset="0" style="stop-color:#FAC242"/>
						<stop  offset="0.1" style="stop-color:#9F5425"/>
						<stop  offset="0.3" style="stop-color:#E8AA35"/>
						<stop  offset="0.48" style="stop-color:#F4F19B"/>
						<stop  offset="0.58" style="stop-color:#E8AA35"/>
						<stop  offset="0.88" style="stop-color:#612810"/>
						<stop  offset="1" style="stop-color:#E8AA35"/>
					</linearGradient>
					<circle style="fill:url(#SVGID_00000030461605429871136710000001921137036286069641_);" cx="167.34" cy="257.51" r="5.76"/>
					
						<linearGradient id="SVGID_00000158712077389773081530000014989810939274007993_" gradientUnits="userSpaceOnUse" x1="105.6052" y1="311.9678" x2="105.6052" y2="-18.9502" gradientTransform="matrix(0.9997 0.0259 -0.0259 0.9997 126.4222 63.9036)">
						<stop  offset="0" style="stop-color:#FAC242"/>
						<stop  offset="0.1" style="stop-color:#9F5425"/>
						<stop  offset="0.3" style="stop-color:#E8AA35"/>
						<stop  offset="0.48" style="stop-color:#F4F19B"/>
						<stop  offset="0.58" style="stop-color:#E8AA35"/>
						<stop  offset="0.88" style="stop-color:#612810"/>
						<stop  offset="1" style="stop-color:#E8AA35"/>
					</linearGradient>
					<circle style="fill:url(#SVGID_00000158712077389773081530000014989810939274007993_);" cx="225.54" cy="315.71" r="5.76"/>
				</g>
			</g>
		</g>
		<g>
			
				<linearGradient id="SVGID_00000152222701417857168570000005531221681096594603_" gradientUnits="userSpaceOnUse" x1="88.1659" y1="204.6871" x2="466.0761" y2="204.6871">
				<stop  offset="0" style="stop-color:#FAC242"/>
				<stop  offset="0.1" style="stop-color:#9F5425"/>
				<stop  offset="0.3" style="stop-color:#E8AA35"/>
				<stop  offset="0.48" style="stop-color:#F4F19B"/>
				<stop  offset="0.58" style="stop-color:#E8AA35"/>
				<stop  offset="0.88" style="stop-color:#612810"/>
				<stop  offset="1" style="stop-color:#E8AA35"/>
			</linearGradient>
			<path style="display:none;fill:url(#SVGID_00000152222701417857168570000005531221681096594603_);" d="M458.38,194.06
				c-5.37-6.62-11.56-12.49-18.4-17.46c-5.86-4.26-16.66-10.87-31.68-15.07c2.04-3.26,3.15-7.02,3.15-10.96
				c0-5.55-2.16-10.76-6.08-14.68c-3.92-3.92-9.13-6.08-14.68-6.08c-3.74,0-7.33,1.01-10.47,2.85c0.66-7,0.61-14.11-0.17-21.13
				l-1.35-12.15l-12.17-1.13c-3.02-0.28-6.09-0.42-9.11-0.42c-1.65,0-3.29,0.06-4.94,0.14c0.5-1.8,0.78-3.68,0.78-5.6
				c0-5.55-2.16-10.76-6.08-14.68c-3.92-3.92-9.13-6.08-14.68-6.08c-4.73,0-9.21,1.58-12.86,4.47
				c-4.72-16.79-12.59-29.17-18.78-36.95c-4.55-5.72-9.74-10.97-15.42-15.62l-9.46-7.73l-9.49,7.7
				c-6.61,5.37-12.49,11.56-17.46,18.4c-4.25,5.84-10.82,16.59-15.03,31.54c-3.17-1.88-6.78-2.91-10.56-2.91
				c-5.55,0-10.76,2.16-14.68,6.08s-6.08,9.13-6.08,14.68c0,3.36,0.8,6.59,2.3,9.49c-2.68-0.21-5.37-0.32-8.05-0.32
				c-3.8,0-7.65,0.21-11.44,0.64l-12.14,1.35l-1.13,12.17c-0.47,5.08-0.54,10.19-0.22,15.25c-2.15-0.74-4.42-1.14-6.75-1.14
				c-5.55,0-10.76,2.16-14.68,6.08s-6.08,9.13-6.08,14.68c0,4.55,1.48,8.87,4.17,12.44c-17.42,4.93-29.55,13.17-35.78,18.21
				c-6.57,5.32-12.45,11.51-17.47,18.39l-7.2,9.87l8.21,9.05c4.93,5.44,10.45,10.35,16.4,14.59c7.78,5.55,19.89,12.44,35.92,16.37
				c-3.77,7.74-2.46,17.35,3.96,23.78c3.92,3.92,9.13,6.08,14.68,6.08c2.54,0,5.01-0.47,7.32-1.34c-0.44,6.22-0.32,12.51,0.37,18.73
				l1.35,12.14l12.17,1.13c3.02,0.28,6.09,0.42,9.11,0.42c0,0,0,0,0,0c2.75,0,5.5-0.12,8.25-0.35c-0.73,2.13-1.13,4.39-1.13,6.71
				c0,5.55,2.16,10.76,6.08,14.68c3.92,3.92,9.13,6.08,14.68,6.08c3.22,0,6.33-0.75,9.14-2.13c4.96,16.77,12.94,28.5,17.87,34.59
				c5.32,6.58,11.51,12.45,18.39,17.47l9.87,7.2l9.05-8.21c5.44-4.94,10.34-10.45,14.59-16.4c5.53-7.74,12.37-19.76,16.32-35.68
				c3.09,1.76,6.59,2.71,10.24,2.71c5.55,0,10.76-2.16,14.68-6.08c3.92-3.92,6.08-9.13,6.08-14.68c0-3.13-0.71-6.14-2.01-8.88
				c2.79,0.23,5.61,0.35,8.4,0.35c3.8,0,7.65-0.21,11.44-0.64l12.14-1.35l1.13-12.17c0.49-5.23,0.55-10.47,0.2-15.67
				c1.96,0.6,4.02,0.92,6.13,0.92c5.54,0,10.76-2.16,14.68-6.08c3.92-3.92,6.08-9.13,6.08-14.68c0-3.66-0.96-7.18-2.73-10.27
				c16.05-4.75,27.95-12.35,35.5-18.35c5.72-4.55,10.98-9.74,15.62-15.42l7.73-9.46L458.38,194.06z"/>
			<g>
				
					<linearGradient id="SVGID_00000046310602691296868620000003683939840613931173_" gradientUnits="userSpaceOnUse" x1="160.7804" y1="81.8838" x2="160.7804" y2="-249.0341" gradientTransform="matrix(1 0 0 1 161.6477 290.0572)">
					<stop  offset="0" style="stop-color:#FAC242"/>
					<stop  offset="0.1" style="stop-color:#9F5425"/>
					<stop  offset="0.3" style="stop-color:#E8AA35"/>
					<stop  offset="0.48" style="stop-color:#F4F19B"/>
					<stop  offset="0.58" style="stop-color:#E8AA35"/>
					<stop  offset="0.88" style="stop-color:#612810"/>
					<stop  offset="1" style="stop-color:#E8AA35"/>
				</linearGradient>
				<path style="fill:url(#SVGID_00000046310602691296868620000003683939840613931173_);" d="M276.89,237.57
					c2.38,19.92,20.69,31.83,32.32,39.4c17.35,11.29,33.75,13.65,39.97,14.29c7.62,0.78,14.1,0.44,18.76-0.08
					c0.49-5.24,0.69-12.71-0.79-21.46c-0.73-4.33-4.16-22.43-18.93-40.38c-8.59-10.44-18.91-22.97-35.78-25.26
					c-3.56-0.48-18.54-2.51-28.31,7.52C274.92,221.05,276.56,234.8,276.89,237.57z M305.33,206.76c3.97,0.17,7.96,1.14,11.74,2.69
					c0.39,0.16,0.77,0.32,1.14,0.49c0.38,0.16,0.76,0.33,1.12,0.52c0.21,0.09,0.43,0.19,0.63,0.31c3.16,1.6,6.15,3.59,8.87,5.79
					c1.15,0.92,2.25,1.86,3.34,2.85c0.39,0.36,0.79,0.72,1.17,1.09c2.34,2.23,4.54,4.58,6.73,6.97c5.77,6.26,10.8,13.13,15,20.48
					c0.16,0.28,0.34,0.48,0.53,0.64c0.83,1.5,1.6,3.02,2.33,4.55c0.02,0.22,0.09,0.46,0.18,0.71c2.03,4.51,3.8,9.17,5.03,13.93
					c0.01,0.01,0.02,0.03,0.01,0.06c0.87,3.69,1.44,7.47,1.63,11.29c-0.18-0.42-0.36-0.85-0.56-1.28c-0.03-0.08-0.07-0.16-0.11-0.25
					c-5.43-12.2-13.39-23.33-22.54-33.66c-0.53-0.59-1.08-1.21-1.63-1.81c-0.17-0.19-0.34-0.37-0.51-0.56
					c-1.64-1.85-3.33-3.65-5.05-5.43c-0.22-0.22-0.43-0.45-0.66-0.67c-0.24-0.24-0.44-0.45-0.62-0.64
					c-0.55-0.56-0.86-0.89-0.86-0.89c-0.24-0.24-0.47-0.47-0.69-0.69c-8.02-8.13-16.76-16.34-27.04-21.06
					c-0.3-0.15-0.6-0.29-0.91-0.42c-0.31-0.15-0.63-0.29-0.96-0.42c-0.14-0.06-0.27-0.12-0.42-0.17c-2.12-0.88-4.31-1.59-6.56-2.08
					c-0.03-0.01-0.06-0.02-0.08-0.02c-0.07-0.02-0.14-0.04-0.22-0.05c-0.21-0.05-0.43-0.1-0.64-0.14c-0.02-0.01-0.04-0.01-0.06-0.02
					c-0.05-0.02-0.09-0.02-0.14-0.03c3.16-1.43,6.45-2.08,9.77-2.1C304.66,206.73,304.99,206.73,305.33,206.76z M288.05,213.11
					c2.35-1.29,4.84-1.28,7.39-0.79c13.87,3.13,24.8,14.08,34.7,23.89c13.55,14.02,26.51,29.39,33.01,47.83
					c0.04,0.09,0.04,0.19,0.06,0.43L288.05,213.11z M292.13,256.95c-8.76-8.99-14.73-22.36-10.56-34.25
					c0.03-0.17,0.04-0.36,0.33-0.47c1.49,7.06,5.42,13.37,9.91,19.06c3.25,3.98,6.67,7.91,10.54,11.27
					c0.75,0.45,1.52,0.37,2.02-0.26c0.51-0.66,0.5-1.44-0.16-2.13c-1.36-1.35-2.72-2.67-4.03-4.05
					c-6.44-6.74-17.92-20.64-14.68-30.06c0.22-0.52,0.42-0.64,0.87-0.14c0.35,0.38,0.75,0.71,1.12,1.06l73.49,69.77
					c-17.91-4.12-37-18.93-50.81-31.15c-1.03-1.13-2.89-0.93-2.99,0.71c-0.04,0.68,0.39,1.11,0.87,1.55
					c3.38,3.06,6.89,5.99,10.46,8.85c11.34,9.11,23.71,17.01,37.22,22.09C331.58,288.5,308.96,274.23,292.13,256.95z"/>
				
					<linearGradient id="SVGID_00000161626636431954287820000003114178377752735124_" gradientUnits="userSpaceOnUse" x1="70.9798" y1="78.7543" x2="70.9798" y2="-252.1636" gradientTransform="matrix(1 0 0 1 161.6477 290.0572)">
					<stop  offset="0" style="stop-color:#FAC242"/>
					<stop  offset="0.1" style="stop-color:#9F5425"/>
					<stop  offset="0.3" style="stop-color:#E8AA35"/>
					<stop  offset="0.48" style="stop-color:#F4F19B"/>
					<stop  offset="0.58" style="stop-color:#E8AA35"/>
					<stop  offset="0.88" style="stop-color:#612810"/>
					<stop  offset="1" style="stop-color:#E8AA35"/>
				</linearGradient>
				<path style="fill:url(#SVGID_00000161626636431954287820000003114178377752735124_);" d="M278.16,169.6
					c-2.38-19.92-20.69-31.83-32.32-39.4c-17.35-11.29-33.75-13.65-39.97-14.29c-7.62-0.78-14.1-0.44-18.76,0.08
					c-0.49,5.24-0.69,12.71,0.79,21.46c0.73,4.33,4.16,22.43,18.93,40.38c8.59,10.44,18.91,22.97,35.78,25.26
					c3.56,0.48,18.54,2.51,28.31-7.52C280.14,186.12,278.5,172.37,278.16,169.6z M249.72,200.42c-3.97-0.17-7.96-1.14-11.74-2.69
					c-0.39-0.16-0.77-0.32-1.14-0.49c-0.38-0.16-0.76-0.33-1.12-0.52c-0.21-0.09-0.43-0.19-0.63-0.31c-3.16-1.6-6.15-3.59-8.87-5.79
					c-1.15-0.92-2.25-1.86-3.34-2.85c-0.39-0.36-0.79-0.72-1.17-1.09c-2.34-2.23-4.54-4.58-6.73-6.97
					c-5.77-6.26-10.8-13.13-15-20.48c-0.16-0.28-0.34-0.48-0.53-0.64c-0.83-1.5-1.6-3.02-2.33-4.55c-0.02-0.22-0.09-0.46-0.18-0.71
					c-2.03-4.51-3.8-9.17-5.03-13.93c-0.01-0.01-0.02-0.03-0.01-0.06c-0.87-3.69-1.44-7.47-1.63-11.29
					c0.18,0.42,0.36,0.85,0.56,1.28c0.03,0.08,0.07,0.16,0.11,0.25c5.43,12.2,13.39,23.33,22.54,33.66
					c0.53,0.59,1.08,1.21,1.63,1.81c0.17,0.19,0.34,0.37,0.51,0.56c1.64,1.85,3.33,3.65,5.05,5.43c0.22,0.22,0.43,0.45,0.66,0.67
					c0.24,0.24,0.44,0.45,0.62,0.64c0.55,0.56,0.86,0.89,0.86,0.89c0.24,0.24,0.47,0.47,0.69,0.69
					c8.02,8.13,16.76,16.34,27.04,21.06c0.3,0.15,0.6,0.29,0.91,0.42c0.31,0.15,0.63,0.29,0.96,0.42c0.14,0.06,0.27,0.12,0.42,0.17
					c2.12,0.88,4.31,1.59,6.56,2.08c0.03,0.01,0.06,0.02,0.08,0.02c0.07,0.02,0.14,0.04,0.22,0.05c0.21,0.05,0.43,0.1,0.64,0.14
					c0.02,0.01,0.04,0.01,0.06,0.02c0.05,0.02,0.09,0.02,0.14,0.03c-3.16,1.43-6.45,2.08-9.77,2.1
					C250.4,200.44,250.06,200.44,249.72,200.42z M267.01,194.07c-2.35,1.29-4.84,1.28-7.39,0.79c-13.87-3.13-24.8-14.08-34.7-23.89
					c-13.55-14.02-26.51-29.39-33.01-47.83c-0.04-0.09-0.04-0.19-0.06-0.43L267.01,194.07z M262.93,150.23
					c8.76,8.99,14.73,22.36,10.56,34.25c-0.03,0.17-0.04,0.36-0.33,0.47c-1.49-7.06-5.42-13.37-9.91-19.06
					c-3.25-3.98-6.67-7.91-10.54-11.27c-0.75-0.45-1.52-0.37-2.02,0.26c-0.51,0.66-0.5,1.44,0.16,2.13
					c1.36,1.35,2.72,2.67,4.03,4.05c6.44,6.74,17.92,20.64,14.68,30.06c-0.22,0.52-0.42,0.64-0.87,0.14
					c-0.35-0.38-0.75-0.71-1.12-1.06l-73.49-69.77c17.91,4.12,37,18.93,50.81,31.15c1.03,1.13,2.89,0.93,2.99-0.71
					c0.04-0.68-0.39-1.11-0.87-1.55c-3.38-3.06-6.89-5.99-10.46-8.85c-11.34-9.11-23.71-17.01-37.22-22.09
					C223.47,118.68,246.09,132.95,262.93,150.23z"/>
			</g>
			<g>
				
					<linearGradient id="SVGID_00000175317284050021222040000017099265503687912846_" gradientUnits="userSpaceOnUse" x1="178.6482" y1="585.8174" x2="178.6482" y2="254.8994" gradientTransform="matrix(0 -1 1 0 -139.9346 337.3339)">
					<stop  offset="0" style="stop-color:#FAC242"/>
					<stop  offset="0.1" style="stop-color:#9F5425"/>
					<stop  offset="0.3" style="stop-color:#E8AA35"/>
					<stop  offset="0.48" style="stop-color:#F4F19B"/>
					<stop  offset="0.58" style="stop-color:#E8AA35"/>
					<stop  offset="0.88" style="stop-color:#612810"/>
					<stop  offset="1" style="stop-color:#E8AA35"/>
				</linearGradient>
				<path style="fill:url(#SVGID_00000175317284050021222040000017099265503687912846_);" d="M311.52,204.22
					c19.92-2.38,31.83-20.69,39.4-32.32c11.29-17.35,13.65-33.75,14.29-39.97c0.78-7.62,0.44-14.1-0.08-18.76
					c-5.24-0.49-12.71-0.69-21.46,0.79c-4.33,0.73-22.43,4.16-40.38,18.93c-10.44,8.59-22.97,18.91-25.26,35.78
					c-0.48,3.56-2.51,18.54,7.52,28.31C294.99,206.2,308.74,204.55,311.52,204.22z M280.7,175.78c0.17-3.97,1.14-7.96,2.69-11.74
					c0.16-0.39,0.32-0.77,0.49-1.14c0.16-0.38,0.33-0.76,0.52-1.12c0.09-0.21,0.19-0.43,0.31-0.63c1.6-3.16,3.59-6.15,5.79-8.87
					c0.92-1.15,1.86-2.25,2.85-3.34c0.36-0.39,0.72-0.79,1.09-1.17c2.23-2.34,4.58-4.54,6.97-6.73c6.26-5.77,13.13-10.8,20.48-15
					c0.28-0.16,0.48-0.34,0.64-0.53c1.5-0.83,3.02-1.6,4.55-2.33c0.22-0.02,0.46-0.09,0.71-0.18c4.51-2.03,9.17-3.8,13.93-5.03
					c0.01-0.01,0.03-0.02,0.06-0.01c3.69-0.87,7.47-1.44,11.29-1.63c-0.42,0.18-0.85,0.36-1.28,0.56c-0.08,0.03-0.16,0.07-0.25,0.11
					c-12.2,5.43-23.33,13.39-33.66,22.54c-0.59,0.53-1.21,1.08-1.81,1.63c-0.19,0.17-0.37,0.34-0.56,0.51
					c-1.85,1.64-3.65,3.33-5.43,5.05c-0.22,0.22-0.45,0.43-0.67,0.66c-0.24,0.24-0.45,0.44-0.64,0.62
					c-0.56,0.55-0.89,0.86-0.89,0.86c-0.24,0.24-0.47,0.47-0.69,0.69c-8.13,8.02-16.34,16.76-21.06,27.04
					c-0.15,0.3-0.29,0.6-0.42,0.91c-0.15,0.31-0.29,0.63-0.42,0.96c-0.06,0.14-0.12,0.27-0.17,0.42c-0.88,2.12-1.59,4.31-2.08,6.56
					c-0.01,0.03-0.02,0.06-0.02,0.08c-0.02,0.07-0.04,0.14-0.05,0.22c-0.05,0.21-0.1,0.43-0.14,0.64c-0.01,0.02-0.01,0.04-0.02,0.06
					c-0.02,0.05-0.02,0.09-0.03,0.14c-1.43-3.16-2.08-6.45-2.1-9.77C280.67,176.45,280.67,176.12,280.7,175.78z M287.05,193.07
					c-1.29-2.35-1.28-4.84-0.79-7.39c3.13-13.87,14.08-24.8,23.89-34.7c14.02-13.55,29.39-26.51,47.83-33.01
					c0.09-0.04,0.19-0.04,0.43-0.06L287.05,193.07z M330.89,188.99c-8.99,8.76-22.36,14.73-34.25,10.56
					c-0.17-0.03-0.36-0.04-0.47-0.33c7.06-1.49,13.37-5.42,19.06-9.91c3.98-3.25,7.91-6.67,11.27-10.54
					c0.45-0.75,0.37-1.52-0.26-2.02c-0.66-0.51-1.44-0.5-2.13,0.16c-1.35,1.36-2.67,2.72-4.05,4.03
					c-6.74,6.44-20.64,17.92-30.06,14.68c-0.52-0.22-0.64-0.42-0.14-0.87c0.38-0.35,0.71-0.75,1.06-1.12l69.77-73.49
					c-4.12,17.91-18.93,37-31.15,50.81c-1.13,1.03-0.93,2.89,0.71,2.99c0.68,0.04,1.11-0.39,1.55-0.87
					c3.06-3.38,5.99-6.89,8.85-10.46c9.11-11.34,17.01-23.71,22.09-37.22C362.44,149.53,348.17,172.15,330.89,188.99z"/>
				
					<linearGradient id="SVGID_00000150801404755578037450000010684000976934338950_" gradientUnits="userSpaceOnUse" x1="88.8475" y1="582.6879" x2="88.8475" y2="251.7699" gradientTransform="matrix(0 -1 1 0 -139.9346 337.3339)">
					<stop  offset="0" style="stop-color:#FAC242"/>
					<stop  offset="0.1" style="stop-color:#9F5425"/>
					<stop  offset="0.3" style="stop-color:#E8AA35"/>
					<stop  offset="0.48" style="stop-color:#F4F19B"/>
					<stop  offset="0.58" style="stop-color:#E8AA35"/>
					<stop  offset="0.88" style="stop-color:#612810"/>
					<stop  offset="1" style="stop-color:#E8AA35"/>
				</linearGradient>
				<path style="fill:url(#SVGID_00000150801404755578037450000010684000976934338950_);" d="M243.54,202.95
					c-19.92,2.38-31.83,20.69-39.4,32.32c-11.29,17.35-13.65,33.75-14.29,39.97c-0.78,7.62-0.44,14.1,0.08,18.76
					c5.24,0.49,12.71,0.69,21.46-0.79c4.33-0.73,22.43-4.16,40.38-18.93c10.44-8.59,22.97-18.91,25.26-35.78
					c0.48-3.56,2.51-18.54-7.52-28.31C260.06,200.97,246.32,202.62,243.54,202.95z M274.36,231.39c-0.17,3.97-1.14,7.96-2.69,11.74
					c-0.16,0.39-0.32,0.77-0.49,1.14c-0.16,0.38-0.33,0.76-0.52,1.12c-0.09,0.21-0.19,0.43-0.31,0.63c-1.6,3.16-3.59,6.15-5.79,8.87
					c-0.92,1.15-1.86,2.25-2.85,3.34c-0.36,0.39-0.72,0.79-1.09,1.17c-2.23,2.34-4.58,4.54-6.97,6.73
					c-6.26,5.77-13.13,10.8-20.48,15c-0.28,0.16-0.48,0.34-0.64,0.53c-1.5,0.83-3.02,1.6-4.55,2.33c-0.22,0.02-0.46,0.09-0.71,0.18
					c-4.51,2.03-9.17,3.8-13.93,5.03c-0.01,0.01-0.03,0.02-0.06,0.01c-3.69,0.87-7.47,1.44-11.29,1.63
					c0.42-0.18,0.85-0.36,1.28-0.56c0.08-0.03,0.16-0.07,0.25-0.11c12.2-5.43,23.33-13.39,33.66-22.54
					c0.59-0.53,1.21-1.08,1.81-1.63c0.19-0.17,0.37-0.34,0.56-0.51c1.85-1.64,3.65-3.33,5.43-5.05c0.22-0.22,0.45-0.43,0.67-0.66
					c0.24-0.24,0.45-0.44,0.64-0.62c0.56-0.55,0.89-0.86,0.89-0.86c0.24-0.24,0.47-0.47,0.69-0.69
					c8.13-8.02,16.34-16.76,21.06-27.04c0.15-0.3,0.29-0.6,0.42-0.91c0.15-0.31,0.29-0.63,0.42-0.96c0.06-0.14,0.12-0.27,0.17-0.42
					c0.88-2.12,1.59-4.31,2.08-6.56c0.01-0.03,0.02-0.06,0.02-0.08c0.02-0.07,0.04-0.14,0.05-0.22c0.05-0.21,0.1-0.43,0.14-0.64
					c0.01-0.02,0.01-0.04,0.02-0.06c0.02-0.05,0.02-0.09,0.03-0.14c1.43,3.16,2.08,6.45,2.1,9.77
					C274.39,230.72,274.38,231.05,274.36,231.39z M268.01,214.11c1.29,2.35,1.28,4.84,0.79,7.39c-3.13,13.87-14.08,24.8-23.89,34.7
					c-14.02,13.55-29.39,26.51-47.83,33.01c-0.09,0.04-0.19,0.04-0.43,0.06L268.01,214.11z M224.17,218.19
					c8.99-8.76,22.36-14.73,34.25-10.56c0.17,0.03,0.36,0.04,0.47,0.33c-7.06,1.49-13.37,5.42-19.06,9.91
					c-3.98,3.25-7.91,6.67-11.27,10.54c-0.45,0.75-0.37,1.52,0.26,2.02c0.66,0.51,1.44,0.5,2.13-0.16c1.35-1.36,2.67-2.72,4.05-4.03
					c6.74-6.44,20.64-17.92,30.06-14.68c0.52,0.22,0.64,0.42,0.14,0.87c-0.38,0.35-0.71,0.75-1.06,1.12l-69.77,73.49
					c4.12-17.91,18.93-37,31.15-50.81c1.13-1.03,0.93-2.89-0.71-2.99c-0.68-0.04-1.11,0.39-1.55,0.87
					c-3.06,3.38-5.99,6.89-8.85,10.46c-9.11,11.34-17.01,23.71-22.09,37.22C192.62,257.64,206.89,235.02,224.17,218.19z"/>
			</g>
			<g>
				<g>
					
						<linearGradient id="SVGID_00000044861684102590111430000006322700528247436463_" gradientUnits="userSpaceOnUse" x1="277.7927" y1="371.5344" x2="277.7927" y2="40.6164" gradientTransform="matrix(1 0 0 1 -0.6847 -0.0339)">
						<stop  offset="0" style="stop-color:#FAC242"/>
						<stop  offset="0.1" style="stop-color:#9F5425"/>
						<stop  offset="0.3" style="stop-color:#E8AA35"/>
						<stop  offset="0.48" style="stop-color:#F4F19B"/>
						<stop  offset="0.58" style="stop-color:#E8AA35"/>
						<stop  offset="0.88" style="stop-color:#612810"/>
						<stop  offset="1" style="stop-color:#E8AA35"/>
					</linearGradient>
					<path style="fill:url(#SVGID_00000044861684102590111430000006322700528247436463_);" d="M301.29,137.68
						c12.57-15.64,8.28-37.05,5.55-50.65c-4.07-20.3-13.85-33.67-17.74-38.56c-4.77-6-9.55-10.38-13.18-13.35
						c-4.09,3.32-9.57,8.4-14.78,15.58c-2.58,3.55-13.13,18.66-15.62,41.78c-1.45,13.44-3.2,29.58,6.98,43.24
						c2.15,2.89,11.17,15,25.18,14.97C290.86,150.65,299.53,139.86,301.29,137.68z M259.37,138.91c-2.65-2.96-4.75-6.48-6.29-10.27
						c-0.16-0.39-0.31-0.77-0.45-1.16c-0.15-0.39-0.29-0.77-0.42-1.17c-0.08-0.22-0.16-0.44-0.22-0.66
						c-1.06-3.38-1.74-6.91-2.06-10.39c-0.15-1.46-0.24-2.91-0.3-4.38c-0.02-0.53-0.03-1.07-0.03-1.6
						c-0.05-3.23,0.09-6.45,0.27-9.68c0.44-8.5,1.83-16.9,4.14-25.05c0.09-0.31,0.11-0.58,0.09-0.83c0.49-1.64,1.03-3.26,1.62-4.85
						c0.14-0.16,0.27-0.38,0.38-0.63c1.81-4.61,3.9-9.13,6.44-13.34c0-0.01,0.01-0.04,0.04-0.05c2.03-3.21,4.33-6.25,6.92-9.06
						c-0.17,0.43-0.36,0.85-0.52,1.29c-0.03,0.08-0.07,0.16-0.1,0.25c-4.92,12.42-7.31,25.89-8.29,39.65
						c-0.05,0.8-0.11,1.62-0.15,2.43c-0.01,0.25-0.03,0.51-0.04,0.76c-0.17,2.47-0.28,4.93-0.35,7.41c0,0.31-0.02,0.62-0.01,0.94
						c0,0.33-0.02,0.63-0.02,0.89c-0.02,0.79-0.04,1.24-0.04,1.24c0,0.33-0.01,0.66-0.01,0.98c-0.21,11.42,0.05,23.41,3.86,34.06
						c0.1,0.31,0.21,0.63,0.33,0.94c0.11,0.32,0.24,0.66,0.37,0.98c0.06,0.14,0.1,0.28,0.17,0.42c0.85,2.14,1.88,4.2,3.1,6.15
						c0.01,0.03,0.03,0.05,0.05,0.07c0.04,0.06,0.07,0.13,0.12,0.19c0.11,0.19,0.23,0.38,0.35,0.55c0.01,0.02,0.02,0.04,0.03,0.05
						c0.02,0.04,0.05,0.08,0.07,0.13c-3.23-1.26-6-3.16-8.34-5.52C259.82,139.41,259.59,139.17,259.37,138.91z M276,146.82
						c-2.57-0.77-4.3-2.56-5.73-4.73c-7.46-12.1-7.28-27.58-7.19-41.51c0.54-19.49,2.46-39.51,11.09-57.05
						c0.03-0.09,0.11-0.16,0.27-0.35L276,146.82z M304.47,113.24c-0.3,12.55-5.68,26.17-17.09,31.5c-0.14,0.09-0.29,0.23-0.57,0.1
						c4-6,5.76-13.23,6.69-20.41c0.57-5.1,0.98-10.3,0.69-15.42c-0.2-0.85-0.8-1.34-1.6-1.27c-0.83,0.09-1.38,0.65-1.41,1.6
						c-0.02,1.91-0.01,3.81-0.08,5.71c-0.31,9.31-2.22,27.24-11.22,31.52c-0.52,0.21-0.76,0.15-0.71-0.52
						c0.03-0.52-0.02-1.03-0.02-1.54L277.62,43.2c9.58,15.68,12.35,39.68,13.28,58.1c-0.09,1.53,1.35,2.72,2.6,1.64
						c0.52-0.45,0.53-1.06,0.5-1.71c-0.18-4.56-0.54-9.11-0.99-13.67c-1.42-14.48-4.43-28.85-10.24-42.05
						C299.42,62.98,305.05,89.12,304.47,113.24z"/>
					
						<linearGradient id="SVGID_00000172400370920906289890000005904439707519246741_" gradientUnits="userSpaceOnUse" x1="277.7927" y1="371.5344" x2="277.7927" y2="40.6164" gradientTransform="matrix(1 0 0 1 -0.6847 -0.0339)">
						<stop  offset="0" style="stop-color:#FAC242"/>
						<stop  offset="0.1" style="stop-color:#9F5425"/>
						<stop  offset="0.3" style="stop-color:#E8AA35"/>
						<stop  offset="0.48" style="stop-color:#F4F19B"/>
						<stop  offset="0.58" style="stop-color:#E8AA35"/>
						<stop  offset="0.88" style="stop-color:#612810"/>
						<stop  offset="1" style="stop-color:#E8AA35"/>
					</linearGradient>
					<path style="fill:url(#SVGID_00000172400370920906289890000005904439707519246741_);" d="M275.53,258.78
						c-13.99,0.69-22.37,13.26-24.37,16.25c-9.45,14.17-6.87,30.19-4.73,43.54c3.69,22.95,15,37.5,17.76,40.91
						c5.58,6.9,11.32,11.69,15.57,14.79c3.47-3.15,8.01-7.77,12.47-14.01c3.64-5.09,12.71-18.95,15.72-39.43
						c2.02-13.72,5.19-35.33-8.17-50.3C297.92,268.46,288.7,258.13,275.53,258.78z M258.52,270.7c2.21-2.48,4.88-4.52,8.04-5.94
						c-0.03,0.05-0.05,0.08-0.07,0.13c-0.01,0.02-0.02,0.04-0.03,0.06c-0.11,0.18-0.22,0.38-0.32,0.57
						c-0.05,0.07-0.08,0.13-0.11,0.19c-0.02,0.02-0.03,0.05-0.04,0.07c-1.12,2.01-2.04,4.12-2.78,6.3c-0.06,0.15-0.1,0.28-0.15,0.43
						c-0.11,0.33-0.22,0.67-0.32,1c-0.11,0.32-0.19,0.64-0.28,0.96c-3.25,10.84-2.88,22.82-2.09,34.21
						c0.02,0.32,0.04,0.64,0.06,0.97c0,0,0.04,0.45,0.1,1.23c0.02,0.26,0.05,0.56,0.07,0.89c0.01,0.32,0.04,0.63,0.06,0.94
						c0.2,2.47,0.43,4.93,0.73,7.38c0.03,0.25,0.05,0.5,0.08,0.76c0.08,0.81,0.19,1.63,0.28,2.42c1.7,13.69,4.78,27.02,10.34,39.17
						c0.03,0.09,0.07,0.17,0.11,0.25c0.19,0.43,0.39,0.84,0.59,1.26c-2.74-2.67-5.19-5.59-7.38-8.69c-0.03-0.01-0.04-0.03-0.04-0.04
						c-2.75-4.06-5.07-8.48-7.12-12.98c-0.13-0.24-0.26-0.45-0.41-0.61c-0.67-1.56-1.3-3.14-1.87-4.76
						c0.01-0.25-0.03-0.52-0.13-0.83c-2.73-8.02-4.56-16.33-5.44-24.8c-0.34-3.22-0.65-6.43-0.77-9.66
						c-0.03-0.53-0.04-1.06-0.05-1.6c-0.02-1.47,0-2.93,0.07-4.39c0.14-3.49,0.64-7.05,1.52-10.48c0.05-0.23,0.11-0.46,0.18-0.68
						c0.1-0.4,0.22-0.79,0.35-1.19c0.12-0.39,0.25-0.79,0.39-1.18c1.34-3.86,3.25-7.49,5.75-10.58
						C258.07,271.22,258.29,270.96,258.52,270.7z M277.86,366.3c-0.17-0.17-0.24-0.24-0.28-0.33c-9.53-17.07-12.48-36.97-14.03-56.4
						c-0.81-13.91-1.79-29.35,5.03-41.83c1.32-2.23,2.96-4.11,5.48-5.02L277.86,366.3z M286.06,363.55
						c5.12-13.49,7.38-27.99,8.05-42.53c0.22-4.57,0.34-9.14,0.28-13.7c-0.01-0.65-0.05-1.25-0.59-1.68
						c-1.3-1.01-2.67,0.25-2.51,1.77c0.03,18.44-1.49,42.55-10.25,58.71l-3.72-101.27c-0.02-0.51,0-1.03-0.06-1.54
						c-0.08-0.67,0.15-0.74,0.68-0.56c9.21,3.81,12.04,21.61,12.83,30.9c0.17,1.89,0.26,3.79,0.37,5.7
						c0.08,0.95,0.66,1.48,1.49,1.53c0.81,0.03,1.37-0.49,1.53-1.35c0.03-5.12-0.65-10.29-1.49-15.36
						c-1.3-7.13-3.43-14.25-7.74-20.04c0.27-0.15,0.42-0.02,0.57,0.07c11.67,4.74,17.75,18.06,18.7,30.58
						C306.06,318.84,301.8,345.24,286.06,363.55z"/>
				</g>
				<g>
					
						<linearGradient id="SVGID_00000085242353361754179140000005145050658178277280_" gradientUnits="userSpaceOnUse" x1="389.6359" y1="373.4058" x2="389.6359" y2="42.4878" gradientTransform="matrix(1 0 0 1 -0.6847 -0.0339)">
						<stop  offset="0" style="stop-color:#FAC242"/>
						<stop  offset="0.1" style="stop-color:#9F5425"/>
						<stop  offset="0.3" style="stop-color:#E8AA35"/>
						<stop  offset="0.48" style="stop-color:#F4F19B"/>
						<stop  offset="0.58" style="stop-color:#E8AA35"/>
						<stop  offset="0.88" style="stop-color:#612810"/>
						<stop  offset="1" style="stop-color:#E8AA35"/>
					</linearGradient>
					<path style="fill:url(#SVGID_00000085242353361754179140000005145050658178277280_);" d="M344.17,228.88
						c15.64,12.57,37.05,8.28,50.65,5.55c20.3-4.07,33.67-13.85,38.56-17.74c6-4.77,10.38-9.55,13.35-13.18
						c-3.32-4.09-8.4-9.57-15.58-14.78c-3.55-2.58-18.66-13.13-41.78-15.62c-13.44-1.45-29.58-3.2-43.24,6.98
						c-2.89,2.15-15,11.17-14.97,25.18C331.2,218.45,341.99,227.13,344.17,228.88z M342.94,186.96c2.96-2.65,6.48-4.75,10.27-6.29
						c0.39-0.16,0.77-0.31,1.16-0.45c0.39-0.15,0.77-0.29,1.17-0.42c0.22-0.08,0.44-0.16,0.66-0.22c3.38-1.06,6.91-1.74,10.39-2.06
						c1.46-0.15,2.91-0.24,4.38-0.3c0.53-0.02,1.07-0.03,1.6-0.03c3.23-0.05,6.45,0.09,9.68,0.27c8.5,0.44,16.9,1.83,25.05,4.14
						c0.31,0.09,0.58,0.11,0.83,0.09c1.64,0.49,3.26,1.03,4.85,1.62c0.16,0.14,0.38,0.27,0.63,0.38c4.61,1.81,9.13,3.9,13.34,6.44
						c0.01,0,0.04,0.01,0.05,0.04c3.21,2.03,6.25,4.33,9.06,6.92c-0.43-0.17-0.85-0.36-1.29-0.52c-0.08-0.03-0.16-0.07-0.25-0.1
						c-12.42-4.92-25.89-7.31-39.65-8.29c-0.8-0.05-1.62-0.11-2.43-0.15c-0.25-0.01-0.51-0.03-0.76-0.04
						c-2.47-0.17-4.93-0.28-7.41-0.35c-0.31,0-0.62-0.02-0.94-0.01c-0.33,0-0.63-0.02-0.89-0.02c-0.79-0.02-1.24-0.04-1.24-0.04
						c-0.33,0-0.66-0.01-0.98-0.01c-11.42-0.21-23.41,0.05-34.06,3.86c-0.31,0.1-0.63,0.21-0.94,0.33
						c-0.32,0.11-0.66,0.24-0.98,0.37c-0.14,0.06-0.28,0.1-0.42,0.17c-2.14,0.85-4.2,1.88-6.15,3.1c-0.03,0.01-0.05,0.03-0.07,0.05
						c-0.06,0.04-0.13,0.07-0.19,0.12c-0.19,0.11-0.38,0.23-0.55,0.35c-0.02,0.01-0.04,0.02-0.05,0.03
						c-0.04,0.02-0.08,0.05-0.13,0.07c1.26-3.23,3.16-6,5.52-8.34C342.44,187.41,342.68,187.18,342.94,186.96z M335.03,203.59
						c0.77-2.57,2.56-4.3,4.73-5.73c12.1-7.46,27.58-7.28,41.51-7.19c19.49,0.54,39.51,2.46,57.05,11.09
						c0.09,0.03,0.16,0.11,0.35,0.27L335.03,203.59z M368.61,232.07c-12.55-0.3-26.17-5.68-31.5-17.09
						c-0.09-0.14-0.23-0.29-0.1-0.57c6,4,13.23,5.76,20.41,6.69c5.1,0.57,10.3,0.98,15.42,0.69c0.85-0.2,1.34-0.8,1.27-1.6
						c-0.09-0.83-0.65-1.38-1.6-1.41c-1.91-0.02-3.81-0.01-5.71-0.08c-9.31-0.31-27.24-2.22-31.52-11.22
						c-0.21-0.52-0.15-0.76,0.52-0.71c0.52,0.03,1.03-0.02,1.54-0.02l101.32-1.53c-15.68,9.58-39.68,12.35-58.1,13.28
						c-1.53-0.09-2.72,1.35-1.64,2.6c0.45,0.52,1.06,0.53,1.71,0.5c4.56-0.18,9.11-0.54,13.67-0.99
						c14.48-1.42,28.85-4.43,42.05-10.24C418.88,227.02,392.73,232.64,368.61,232.07z"/>
					
						<linearGradient id="SVGID_00000163043090776202823070000012155287058696115078_" gradientUnits="userSpaceOnUse" x1="165.9321" y1="370.1622" x2="165.9321" y2="39.2441" gradientTransform="matrix(1 0 0 1 -0.6847 -0.0339)">
						<stop  offset="0" style="stop-color:#FAC242"/>
						<stop  offset="0.1" style="stop-color:#9F5425"/>
						<stop  offset="0.3" style="stop-color:#E8AA35"/>
						<stop  offset="0.48" style="stop-color:#F4F19B"/>
						<stop  offset="0.58" style="stop-color:#E8AA35"/>
						<stop  offset="0.88" style="stop-color:#612810"/>
						<stop  offset="1" style="stop-color:#E8AA35"/>
					</linearGradient>
					<path style="fill:url(#SVGID_00000163043090776202823070000012155287058696115078_);" d="M222.98,203.12
						c-0.69-13.99-13.26-22.37-16.25-24.37c-14.17-9.45-30.19-6.87-43.54-4.73c-22.95,3.69-37.5,15-40.91,17.76
						c-6.9,5.58-11.69,11.32-14.79,15.57c3.15,3.47,7.77,8.01,14.01,12.47c5.09,3.64,18.95,12.71,39.43,15.72
						c13.72,2.02,35.33,5.19,50.3-8.17C213.31,225.52,223.63,216.29,222.98,203.12z M211.06,186.11c2.48,2.21,4.52,4.88,5.94,8.04
						c-0.05-0.03-0.08-0.05-0.13-0.07c-0.02-0.01-0.04-0.02-0.06-0.03c-0.18-0.11-0.38-0.22-0.57-0.32
						c-0.07-0.05-0.13-0.08-0.19-0.11c-0.02-0.02-0.05-0.03-0.07-0.04c-2.01-1.12-4.12-2.04-6.3-2.78c-0.15-0.06-0.28-0.1-0.43-0.15
						c-0.33-0.11-0.67-0.22-1-0.32c-0.32-0.11-0.64-0.19-0.96-0.28c-10.84-3.25-22.82-2.88-34.21-2.09
						c-0.32,0.02-0.64,0.04-0.97,0.06c0,0-0.45,0.04-1.23,0.1c-0.26,0.02-0.56,0.05-0.89,0.07c-0.32,0.01-0.63,0.04-0.94,0.06
						c-2.47,0.2-4.93,0.43-7.38,0.73c-0.25,0.03-0.5,0.05-0.76,0.08c-0.81,0.08-1.63,0.19-2.42,0.28
						c-13.69,1.7-27.02,4.78-39.17,10.34c-0.09,0.03-0.17,0.07-0.25,0.11c-0.43,0.19-0.84,0.39-1.26,0.59
						c2.67-2.74,5.59-5.19,8.69-7.38c0.01-0.03,0.03-0.04,0.04-0.04c4.06-2.75,8.48-5.07,12.98-7.12c0.24-0.13,0.45-0.26,0.61-0.41
						c1.56-0.67,3.14-1.3,4.76-1.87c0.25,0.01,0.52-0.03,0.83-0.13c8.02-2.73,16.33-4.56,24.8-5.44c3.22-0.34,6.43-0.65,9.66-0.77
						c0.53-0.03,1.06-0.04,1.6-0.05c1.47-0.02,2.93,0,4.39,0.07c3.49,0.14,7.05,0.64,10.48,1.52c0.23,0.05,0.46,0.11,0.68,0.18
						c0.4,0.1,0.79,0.22,1.19,0.35c0.39,0.12,0.79,0.25,1.18,0.39c3.86,1.34,7.49,3.25,10.58,5.75
						C210.55,185.66,210.8,185.88,211.06,186.11z M115.47,205.45c0.17-0.17,0.24-0.24,0.33-0.28c17.07-9.53,36.97-12.48,56.4-14.03
						c13.91-0.81,29.35-1.79,41.83,5.03c2.23,1.32,4.11,2.96,5.02,5.48L115.47,205.45z M118.22,213.65
						c13.49,5.12,27.99,7.38,42.53,8.05c4.57,0.22,9.14,0.34,13.7,0.28c0.65-0.01,1.25-0.05,1.68-0.59c1.01-1.3-0.25-2.67-1.77-2.51
						c-18.44,0.03-42.55-1.49-58.71-10.25l101.27-3.72c0.51-0.02,1.03,0,1.54-0.06c0.67-0.08,0.74,0.15,0.56,0.68
						c-3.81,9.21-21.61,12.04-30.9,12.83c-1.89,0.17-3.79,0.26-5.7,0.37c-0.95,0.08-1.48,0.66-1.53,1.49
						c-0.03,0.81,0.49,1.37,1.35,1.53c5.12,0.03,10.29-0.65,15.36-1.49c7.13-1.3,14.25-3.43,20.04-7.74
						c0.15,0.27,0.02,0.42-0.07,0.57c-4.74,11.67-18.06,17.75-30.58,18.7C162.92,233.65,136.52,229.39,118.22,213.65z"/>
				</g>
			</g>
		</g>
	</g>
	<g>
		<text transform="matrix(1 0 0 1 107.1051 461.136)" class="st23 st24 st25">BLACK STONE</text>
		<text transform="matrix(1 0 0 1 205.1535 516.1585)" class="st23 st26 st27 st28">FOODS</text>
	</g>
</g>
</svg>
